<?xml version="1.0" standalone="no"?>
<!DOCTYPE svg PUBLIC "-//W3C//DTD SVG 20010904//EN"
 "http://www.w3.org/TR/2001/REC-SVG-20010904/DTD/svg10.dtd">
<svg version="1.0" xmlns="http://www.w3.org/2000/svg"
 width="64.000000pt" height="64.000000pt" viewBox="0 0 64.000000 64.000000"
 preserveAspectRatio="xMidYMid meet">
<metadata>
Created by potrace 1.16, written by Peter Selinger 2001-2019
</metadata>
<g transform="translate(0.000000,64.000000) scale(0.100000,-0.100000)"
fill="#000000" stroke="none">
<path d="M117 602 c-12 -13 -17 -37 -17 -84 0 -46 -4 -69 -15 -78 -24 -20 -20
-107 5 -122 14 -9 20 -24 20 -48 0 -30 -5 -38 -38 -55 l-37 -20 -3 -88 -3 -87
261 0 260 0 0 30 c0 28 -3 30 -35 30 -31 0 -35 3 -35 25 0 24 2 25 70 25 l70
0 0 120 0 120 -100 0 -100 0 0 25 c0 14 -5 34 -11 44 -10 15 -8 22 10 40 14
14 21 33 21 61 0 38 -2 40 -30 40 -17 0 -39 9 -50 20 -17 17 -33 20 -123 20
-88 0 -106 -3 -120 -18z m233 -187 c0 -45 0 -45 -35 -45 -35 0 -35 0 -35 -45
0 -42 -2 -45 -25 -45 -28 0 -86 26 -97 44 -4 6 -8 32 -8 58 0 41 3 49 28 62
16 9 55 15 100 16 l72 0 0 -45z"/>
</g>
</svg>
